<svg xmlns="http://www.w3.org/2000/svg" width="1080" height="1920" viewBox="0 0 1080 1920" role="img" aria-labelledby="title desc">
  <title id="title">Google AI Edge Gallery on-device Gemma 4 screenshot</title>
  <desc id="desc">A stylized phone screenshot showing Google AI Edge Gallery with Gemma 4 on-device use cases including AI Chat, Agent Skills, Ask Image, and Audio Scribe.</desc>
  <rect width="1080" height="1920" fill="#efede8"/>
  <text x="540" y="130" text-anchor="middle" font-family="Arial, Helvetica, sans-serif" font-size="62" fill="#111">Explore various on-device</text>
  <text x="540" y="235" text-anchor="middle" font-family="Arial, Helvetica, sans-serif" font-size="62" fill="#111">LLM use cases</text>

  <rect x="180" y="333" width="720" height="1530" rx="45" fill="#fff" stroke="#222" stroke-width="6"/>
  <text x="210" y="383" font-family="Arial, Helvetica, sans-serif" font-size="22" fill="#222">9:30</text>
  <path d="M815 378 l18 0 l-9 12 z" fill="#222"/>
  <rect x="838" y="370" width="18" height="22" fill="#222"/>
  <rect x="862" y="368" width="10" height="24" rx="2" fill="#222"/>

  <rect x="220" y="436" width="34" height="5" rx="2" fill="#222"/>
  <rect x="220" y="454" width="34" height="5" rx="2" fill="#222"/>
  <rect x="220" y="472" width="34" height="5" rx="2" fill="#222"/>

  <circle cx="355" cy="450" r="9" fill="#fbbc04"/>
  <circle cx="375" cy="450" r="9" fill="#ea4335"/>
  <circle cx="355" cy="470" r="9" fill="#34a853"/>
  <rect x="367" y="462" width="16" height="16" rx="4" fill="#4285f4"/>
  <text x="405" y="468" font-family="Arial, Helvetica, sans-serif" font-size="30" fill="#222">Google AI Edge Gallery</text>

  <defs>
    <radialGradient id="blueGlow" cx="70%" cy="35%" r="55%">
      <stop offset="0%" stop-color="#cfe0ff" stop-opacity="0.9"/>
      <stop offset="100%" stop-color="#cfe0ff" stop-opacity="0"/>
    </radialGradient>
  </defs>
  <rect x="200" y="520" width="680" height="720" fill="url(#blueGlow)"/>

  <text x="230" y="595" font-family="Arial, Helvetica, sans-serif" font-size="38" fill="#222">Google</text>
  <text x="390" y="595" font-family="Arial, Helvetica, sans-serif" font-size="38" fill="#2162d0">AI Edge Gallery</text>
  <text x="230" y="652" font-family="Arial, Helvetica, sans-serif" font-size="27" fill="#222">Discover the power of on-device AI models from</text>
  <text x="230" y="690" font-family="Arial, Helvetica, sans-serif" font-size="27" fill="#222">the <tspan fill="#2f5f9f" text-decoration="underline">LiteRT community</tspan>, featuring the all-new</text>
  <text x="230" y="728" font-family="Arial, Helvetica, sans-serif" font-size="27" fill="#2f5f9f" text-decoration="underline">Gemma 4.</text>

  <rect x="230" y="792" width="38" height="38" rx="8" fill="none" stroke="#5b90ff" stroke-width="2"/>
  <path d="M236 811 h26 M249 798 v26 M240 802 l18 18 M258 802 l-18 18" stroke="#5b90ff" stroke-width="1.5" fill="none"/>
  <text x="290" y="827" font-family="Arial, Helvetica, sans-serif" font-size="30" fill="#222">Try Gemma 4 today</text>
  <text x="230" y="882" font-family="Arial, Helvetica, sans-serif" font-size="26" fill="#222">Gemma 4 E2B &amp; E4B are here! Try them in AI Chat,</text>
  <text x="230" y="922" font-family="Arial, Helvetica, sans-serif" font-size="26" fill="#222">Agent Skills, or the use cases below.</text>

  <rect x="230" y="965" width="620" height="174" rx="28" fill="#f2f5fa"/>
  <path d="M315 1047 q-30 -20 0 -40 q10 -36 45 -24 q30 -24 55 12 q35 0 30 35 q12 35 -30 40 q-25 28 -55 8 q-38 8 -45 -31z" fill="#5b90ff"/>
  <path d="M333 1040 h28 v24 h-28 z M337 1044 h20 v16 h-20 z M349 1067 l10 9" stroke="#fff" stroke-width="4" fill="none"/>
  <text x="378" y="1034" font-family="Arial, Helvetica, sans-serif" font-size="31" fill="#222">AI Chat</text>
  <text x="378" y="1072" font-family="Arial, Helvetica, sans-serif" font-size="24" fill="#333">Chat with the latest Gemma 4 model</text>
  <text x="378" y="1105" font-family="Arial, Helvetica, sans-serif" font-size="24" fill="#333">today</text>

  <rect x="230" y="1158" width="620" height="174" rx="28" fill="#f2f5fa"/>
  <path d="M316 1216 q-28 -20 0 -38 q12 -34 44 -22 q26 -28 58 6 q32 0 30 34 q14 33 -27 40 q-24 30 -59 10 q-38 8 -46 -30z" fill="#f4c542"/>
  <path d="M334 1238 l26 -12 l-9 28 M334 1238 l20 10" stroke="#fff" stroke-width="4" fill="none" stroke-linecap="round" stroke-linejoin="round"/>
  <rect x="718" y="1182" width="100" height="48" rx="16" fill="#dfccff"/>
  <text x="768" y="1215" text-anchor="middle" font-family="Arial, Helvetica, sans-serif" font-size="26" fill="#4c2398">New</text>
  <text x="378" y="1218" font-family="Arial, Helvetica, sans-serif" font-size="31" fill="#222">Agent Skills</text>
  <text x="378" y="1258" font-family="Arial, Helvetica, sans-serif" font-size="24" fill="#333">Have Gemma 4 complete agentic tasks</text>
  <text x="378" y="1291" font-family="Arial, Helvetica, sans-serif" font-size="24" fill="#333">for you</text>

  <text x="230" y="1430" font-family="Arial, Helvetica, sans-serif" font-size="30" fill="#222">Explore other use cases</text>

  <rect x="230" y="1478" width="265" height="282" rx="28" fill="#eef2f8"/>
  <circle cx="300" cy="1553" r="36" fill="#ea4335"/>
  <rect x="281" y="1537" width="38" height="28" rx="4" fill="none" stroke="#fff" stroke-width="3"/>
  <path d="M286 1559 l10 -9 l8 7 l7 -5 l8 7" stroke="#fff" stroke-width="3" fill="none"/>
  <text x="266" y="1645" font-family="Arial, Helvetica, sans-serif" font-size="22" fill="#333">8 Models</text>
  <text x="266" y="1690" font-family="Arial, Helvetica, sans-serif" font-size="31" fill="#222">Ask Image</text>
  <text x="266" y="1730" font-family="Arial, Helvetica, sans-serif" font-size="22" fill="#333">Ask questions about</text>
  <text x="266" y="1760" font-family="Arial, Helvetica, sans-serif" font-size="22" fill="#333">images</text>

  <rect x="525" y="1478" width="325" height="282" rx="28" fill="#eef2f8"/>
  <path d="M622 1538 q45 -55 88 -6 q24 26 14 59 q-12 41 -58 58 q-43 -17 -58 -58 q-12 -33 14 -53z" fill="#30a64a"/>
  <rect x="653" y="1540" width="14" height="30" rx="7" fill="#fff"/>
  <path d="M646 1564 q14 15 28 0 M660 1570 v20 M648 1593 h24" stroke="#fff" stroke-width="4" fill="none" stroke-linecap="round"/>
  <text x="590" y="1645" font-family="Arial, Helvetica, sans-serif" font-size="22" fill="#333">8 Models</text>
  <text x="590" y="1690" font-family="Arial, Helvetica, sans-serif" font-size="31" fill="#222">Audio Scribe</text>
  <text x="590" y="1730" font-family="Arial, Helvetica, sans-serif" font-size="22" fill="#333">Transcribe and</text>
  <text x="590" y="1760" font-family="Arial, Helvetica, sans-serif" font-size="22" fill="#333">translate audio</text>

  <rect x="418" y="1838" width="244" height="9" rx="4" fill="#bbb"/>
</svg>
